<svg xmlns="http://www.w3.org/2000/svg"
     xmlns:xlink="http://www.w3.org/1999/xlink"
     style="display:none">
  <!-- WhatsApp icon as a reusable symbol -->
  <symbol id="icon-whatsapp" viewBox="0 0 240 241.19" preserveAspectRatio="xMidYMid meet">
    <title id="icon-whatsapp-title">WhatsApp</title>
    <path fill="#25d366" fill-rule="evenodd" d="M205,35.05A118.61,118.61,0,0,0,120.46,0C54.6,0,1,53.61,1,119.51a119.5,119.5,0,0,0,16,59.74L0,241.19l63.36-16.63a119.43,119.43,0,0,0,57.08,14.57h0A119.54,119.54,0,0,0,205,35.07v0ZM120.5,219A99.18,99.18,0,0,1,69.91,205.1l-3.64-2.17-37.6,9.85,10-36.65-2.35-3.76A99.37,99.37,0,0,1,190.79,49.27,99.43,99.43,0,0,1,120.49,219ZM175,144.54c-3-1.51-17.67-8.71-20.39-9.71s-4.72-1.51-6.75,1.51-7.72,9.71-9.46,11.72-3.49,2.27-6.45.76-12.63-4.66-24-14.84A91.1,91.1,0,0,1,91.25,113.3c-1.75-3-.19-4.61,1.33-6.07s3-3.48,4.47-5.23a19.65,19.65,0,0,0,3-5,5.51,5.51,0,0,0-.24-5.23C99,90.27,93,75.57,90.6,69.58s-4.89-5-6.73-5.14-3.73-.09-5.7-.09a11,11,0,0,0-8,3.73C67.48,71.05,59.75,78.3,59.75,93s10.69,28.88,12.19,30.9S93,156.07,123,169c7.12,3.06,12.68,4.9,17,6.32a41.18,41.18,0,0,0,18.8,1.17c5.74-.84,17.66-7.21,20.17-14.18s2.5-13,1.75-14.19-2.69-2.06-5.7-3.59l0,0Z"/>
  </symbol>
    <symbol id="icon-instagram" viewBox="0 0 132.004 132" preserveAspectRatio="xMidYMid meet">
  <defs>
    <linearGradient id="b">
      <stop offset="0" stop-color="#3771c8"/>
      <stop offset=".128" stop-color="#3771c8"/>
      <stop offset="1" stop-color="#60f" stop-opacity="0"/>
    </linearGradient>
    <linearGradient id="a">
      <stop offset="0" stop-color="#fd5"/>
      <stop offset=".1" stop-color="#fd5"/>
      <stop offset=".5" stop-color="#ff543e"/>
      <stop offset="1" stop-color="#c837ab"/>
    </linearGradient>
    <radialGradient id="c" cx="158.429" cy="578.088" r="65"
      xlink:href="#a"
      gradientUnits="userSpaceOnUse"
      gradientTransform="matrix(0 -1.98198 1.8439 0 -1031.402 454.004)"
      fx="158.429" fy="578.088"/>
    <radialGradient id="d" cx="147.694" cy="473.455" r="65"
      xlink:href="#b"
      gradientUnits="userSpaceOnUse"
      gradientTransform="matrix(.17394 .86872 -3.5818 .71718 1648.348 -458.493)"
      fx="147.694" fy="473.455"/>
  </defs>

  <path fill="url(#c)" d="M65.03 0C37.888 0 29.95.028 28.407.156c-5.57.463-9.036 1.34-12.812 3.22-2.91 1.445-5.205 3.12-7.47 5.468C4 13.126 1.5 18.394.595 24.656c-.44 3.04-.568 3.66-.594 19.188-.01 5.176 0 11.988 0 21.125 0 27.12.03 35.05.16 36.59.45 5.42 1.3 8.83 3.1 12.56 3.44 7.14 10.01 12.5 17.75 14.5 2.68.69 5.64 1.07 9.44 1.25 1.61.07 18.02.12 34.44.12 16.42 0 32.84-.02 34.41-.1 4.4-.207 6.955-.55 9.78-1.28 7.79-2.01 14.24-7.29 17.75-14.53 1.765-3.64 2.66-7.18 3.065-12.317.088-1.12.125-18.977.125-36.81 0-17.836-.04-35.66-.128-36.78-.41-5.22-1.305-8.73-3.127-12.44-1.495-3.037-3.155-5.305-5.565-7.624C116.9 4 111.64 1.5 105.372.596 102.335.157 101.73.027 86.19 0H65.03z" transform="translate(1.004 1)"/>
  <path fill="url(#d)" d="M65.03 0C37.888 0 29.95.028 28.407.156c-5.57.463-9.036 1.34-12.812 3.22-2.91 1.445-5.205 3.12-7.47 5.468C4 13.126 1.5 18.394.595 24.656c-.44 3.04-.568 3.66-.594 19.188-.01 5.176 0 11.988 0 21.125 0 27.12.03 35.05.16 36.59.45 5.42 1.3 8.83 3.1 12.56 3.44 7.14 10.01 12.5 17.75 14.5 2.68.69 5.64 1.07 9.44 1.25 1.61.07 18.02.12 34.44.12 16.42 0 32.84-.02 34.41-.1 4.4-.207 6.955-.55 9.78-1.28 7.79-2.01 14.24-7.29 17.75-14.53 1.765-3.64 2.66-7.18 3.065-12.317.088-1.12.125-18.977.125-36.81 0-17.836-.04-35.66-.128-36.78-.41-5.22-1.305-8.73-3.127-12.44-1.495-3.037-3.155-5.305-5.565-7.624C116.9 4 111.64 1.5 105.372.596 102.335.157 101.73.027 86.19 0H65.03z" transform="translate(1.004 1)"/>
  <path fill="#fff" d="M66.004 18c-13.036 0-14.672.057-19.792.29-5.11.234-8.598 1.043-11.65 2.23-3.157 1.226-5.835 2.866-8.503 5.535-2.67 2.668-4.31 5.346-5.54 8.502-1.19 3.053-2 6.542-2.23 11.65C18.06 51.327 18 52.964 18 66s.058 14.667.29 19.787c.235 5.11 1.044 8.598 2.23 11.65 1.227 3.157 2.867 5.835 5.536 8.503 2.667 2.67 5.345 4.314 8.5 5.54 3.054 1.187 6.543 1.996 11.652 2.23 5.12.233 6.755.29 19.79.29 13.037 0 14.668-.057 19.788-.29 5.11-.234 8.602-1.043 11.656-2.23 3.156-1.226 5.83-2.87 8.497-5.54 2.67-2.668 4.31-5.346 5.54-8.502 1.18-3.053 1.99-6.542 2.23-11.65.23-5.12.29-6.752.29-19.788 0-13.036-.06-14.672-.29-19.792-.24-5.11-1.05-8.598-2.23-11.65-1.23-3.157-2.87-5.835-5.54-8.503-2.67-2.67-5.34-4.31-8.5-5.535-3.06-1.187-6.55-1.996-11.66-2.23-5.12-.233-6.75-.29-19.79-.29zm-4.306 8.65c1.278-.002 2.704 0 4.306 0 12.816 0 14.335.046 19.396.276 4.68.214 7.22.996 8.912 1.653 2.24.87 3.837 1.91 5.516 3.59 1.68 1.68 2.72 3.28 3.592 5.52.657 1.69 1.44 4.23 1.653 8.91.23 5.06.28 6.58.28 19.39s-.05 14.33-.28 19.39c-.214 4.68-.996 7.22-1.653 8.91-.87 2.24-1.912 3.835-3.592 5.514-1.68 1.68-3.275 2.72-5.516 3.59-1.69.66-4.232 1.44-8.912 1.654-5.06.23-6.58.28-19.396.28-12.817 0-14.336-.05-19.396-.28-4.68-.216-7.22-.998-8.913-1.655-2.24-.87-3.84-1.91-5.52-3.59-1.68-1.68-2.72-3.276-3.592-5.517-.657-1.69-1.44-4.23-1.653-8.91-.23-5.06-.276-6.58-.276-19.398s.046-14.33.276-19.39c.214-4.68.996-7.22 1.653-8.912.87-2.24 1.912-3.84 3.592-5.52 1.68-1.68 3.28-2.72 5.52-3.592 1.692-.66 4.233-1.44 8.913-1.655 4.428-.2 6.144-.26 15.09-.27zm29.928 7.97c-3.18 0-5.76 2.577-5.76 5.758 0 3.18 2.58 5.76 5.76 5.76 3.18 0 5.76-2.58 5.76-5.76 0-3.18-2.58-5.76-5.76-5.76zm-25.622 6.73c-13.613 0-24.65 11.037-24.65 24.65 0 13.613 11.037 24.645 24.65 24.645C79.617 90.645 90.65 79.613 90.65 66S79.616 41.35 66.003 41.35zm0 8.65c8.836 0 16 7.163 16 16 0 8.836-7.164 16-16 16-8.837 0-16-7.164-16-16 0-8.837 7.163-16 16-16z"/>
</symbol>
<symbol id="icon-email" viewBox="0 0 122.88 92.12">
  <style type="text/css"><![CDATA[
    .st0{fill:#EA4335;}
    .st1{fill:#C5221F;}
    .st2{fill:#FBBC04;}
    .st3{fill:#34A853;}
    .st4{fill:#4285F4;}
  ]]></style>
  <g>
    <path class="st4" d="M8.36,92.12h19.54V44.67L0,23.76v60.08C0,88.42,3.78,92.12,8.36,92.12L8.36,92.12z"/>
    <path class="st3" d="M94.97,92.12h19.54c4.67,0,8.36-3.78,8.36-8.36v-60L94.97,44.67V92.12L94.97,92.12z"/>
    <path class="st2" d="M94.97,8.4v36.27l27.91-20.91V12.58c0-10.37-11.82-16.25-20.11-10.05L94.97,8.4L94.97,8.4z"/>
    <polygon class="st0" points="27.9,44.67 27.9,8.4 61.44,33.57 94.97,8.4 94.97,44.67 61.44,69.76 27.9,44.67"/>
    <path class="st1" d="M0,12.58v11.18l27.91,20.91V8.4l-7.8-5.87C11.82-3.66,0,2.29,0,12.58L0,12.58z"/>
  </g>
</symbol>

<symbol id="icon-linkedin" viewBox="0 0 122.88 122.31">
  <style>
    .cls-1{fill:#0a66c2;fill-rule:evenodd;}
    .cls-2{fill:#fff;fill-rule:evenodd;}
  </style>
  <path class="cls-1" d="M27.75,0H95.13a27.83,27.83,0,0,1,27.75,27.75V94.57a27.83,27.83,0,0,1-27.75,27.74H27.75A27.83,27.83,0,0,1,0,94.57V27.75A27.83,27.83,0,0,1,27.75,0Z"/>
  <path class="cls-2" d="M49.19,47.41H64.72v8h.22c2.17-3.88,7.45-8,15.34-8,16.39,0,19.42,10.2,19.42,23.47V98.94H83.51V74c0-5.71-.12-13.06-8.42-13.06s-9.72,6.21-9.72,12.65v25.4H49.19V47.41ZM40,31.79a8.42,8.42,0,1,1-8.42-8.42A8.43,8.43,0,0,1,40,31.79ZM23.18,47.41H40V98.94H23.18V47.41Z"/>
</symbol>


</svg>